# xmcd
#
# Track frame offsets:
#	150
#	15737
#	29224
#	48276
#	67621
#	85563
#	109604
#	126278
#	145241
#	164093
#
# Disc length: 2430 seconds
#
# Revision: 0
# Processed by: cddbd v1.5.2PL0 Copyright (c) Steve Scherf et al.
# Submitted via: EZCDAudioConverter 2.1.5.1
#
DISCID=81097c0a
DTITLE=Reino Nordin - Bongo rock
DYEAR=2014
DGENRE=
TTITLE0=Reino Nordin ft. Jodarok - Musiikki on voimaa
TTITLE1=Reino Nordin ft. Siiri Nordin - Hölmö lause
TTITLE2=Reino Nordin ft. Stepa - Parastaikaa
TTITLE3=Reino Nordin - Ei lomaa
TTITLE4=Reino Nordin - Albatrossi
TTITLE5=Reino Nordin ft. Paperi T - Viereen
TTITLE6=Reino Nordin ft. Kube - Niin varmaan
TTITLE7=Reino Nordin ft. JV - Sun kaa
TTITLE8=Reino Nordin - Hiljaa kanssasi
TTITLE9=Reino Nordin - Tuntematon sotilas
EXTD=
EXTT0=
EXTT1=
EXTT2=
EXTT3=
EXTT4=
EXTT5=
EXTT6=
EXTT7=
EXTT8=
EXTT9=
PLAYORDER=
